<svg xmlns="http://www.w3.org/2000/svg" style="display: none;">
  <symbol id="profile-terminal" viewBox="0 0 48 48">
    <rect x="6" y="8" width="36" height="24" rx="4" fill="none" stroke="currentColor" stroke-width="2.5"/>
    <path d="M14 18l5 4-5 4" fill="none" stroke="currentColor" stroke-width="2.5" stroke-linecap="round" stroke-linejoin="round"/>
    <path d="M23 27h10" fill="none" stroke="currentColor" stroke-width="2.5" stroke-linecap="round"/>
    <path d="M16 38h16" fill="none" stroke="currentColor" stroke-width="2.5" stroke-linecap="round"/>
  </symbol>
  <symbol id="target-shield" viewBox="0 0 48 48">
    <circle cx="18" cy="24" r="8" fill="none" stroke="currentColor" stroke-width="2.5"/>
    <circle cx="18" cy="24" r="3" fill="currentColor"/>
    <path d="M18 12v4M18 32v4M6 24h4M26 24h4" fill="none" stroke="currentColor" stroke-width="2.5" stroke-linecap="round"/>
    <path d="M33 10l7 3v8c0 6-3.9 11.3-7 12.8-3.1-1.5-7-6.8-7-12.8v-8l7-3z" fill="none" stroke="currentColor" stroke-width="2.5" stroke-linejoin="round"/>
  </symbol>
  <symbol id="systems-network" viewBox="0 0 48 48">
    <rect x="6" y="10" width="14" height="10" rx="2" fill="none" stroke="currentColor" stroke-width="2.5"/>
    <rect x="28" y="10" width="14" height="10" rx="2" fill="none" stroke="currentColor" stroke-width="2.5"/>
    <rect x="17" y="28" width="14" height="10" rx="2" fill="none" stroke="currentColor" stroke-width="2.5"/>
    <path d="M13 20v4h22v-4M24 24v4" fill="none" stroke="currentColor" stroke-width="2.5" stroke-linecap="round" stroke-linejoin="round"/>
  </symbol>
  <symbol id="portfolio-dossier" viewBox="0 0 48 48">
    <path d="M10 14h28a3 3 0 013 3v17a4 4 0 01-4 4H11a4 4 0 01-4-4V17a3 3 0 013-3z" fill="none" stroke="currentColor" stroke-width="2.5"/>
    <path d="M18 14v-2a3 3 0 013-3h6a3 3 0 013 3v2" fill="none" stroke="currentColor" stroke-width="2.5" stroke-linecap="round"/>
    <path d="M15 24h18M15 30h10" fill="none" stroke="currentColor" stroke-width="2.5" stroke-linecap="round"/>
  </symbol>
  <symbol id="bts-formation" viewBox="0 0 48 48">
    <path d="M6 18l18-8 18 8-18 8-18-8z" fill="none" stroke="currentColor" stroke-width="2.5" stroke-linejoin="round"/>
    <path d="M14 22v7c0 3 4.5 5 10 5s10-2 10-5v-7" fill="none" stroke="currentColor" stroke-width="2.5" stroke-linecap="round" stroke-linejoin="round"/>
    <path d="M38 20v10" fill="none" stroke="currentColor" stroke-width="2.5" stroke-linecap="round"/>
  </symbol>
  <symbol id="bts-skills" viewBox="0 0 48 48">
    <rect x="10" y="8" width="28" height="32" rx="4" fill="none" stroke="currentColor" stroke-width="2.5"/>
    <path d="M17 18h14M17 24h14M17 30h9" fill="none" stroke="currentColor" stroke-width="2.5" stroke-linecap="round"/>
    <path d="M30 28l3 3 5-6" fill="none" stroke="currentColor" stroke-width="2.5" stroke-linecap="round" stroke-linejoin="round"/>
  </symbol>
  <symbol id="bts-practice" viewBox="0 0 48 48">
    <path d="M17 9l5 5-4 4 4 4-5 5-4-4-4 4-5-5 4-4-4-4 5-5 4 4 4-4z" fill="none" stroke="currentColor" stroke-width="2.5" stroke-linejoin="round"/>
    <path d="M29 14h12M29 24h12M29 34h12" fill="none" stroke="currentColor" stroke-width="2.5" stroke-linecap="round"/>
  </symbol>
  <symbol id="bts-career" viewBox="0 0 48 48">
    <path d="M10 34l8-8 6 6 14-14" fill="none" stroke="currentColor" stroke-width="2.5" stroke-linecap="round" stroke-linejoin="round"/>
    <path d="M30 18h8v8" fill="none" stroke="currentColor" stroke-width="2.5" stroke-linecap="round" stroke-linejoin="round"/>
    <path d="M8 38h32" fill="none" stroke="currentColor" stroke-width="2.5" stroke-linecap="round"/>
  </symbol>
  <symbol id="dashboard-projects" viewBox="0 0 48 48">
    <path d="M7 15h13l3 4h18v14a4 4 0 01-4 4H11a4 4 0 01-4-4V19a4 4 0 014-4z" fill="none" stroke="currentColor" stroke-width="2.5" stroke-linejoin="round"/>
    <path d="M14 26h10" fill="none" stroke="currentColor" stroke-width="2.5" stroke-linecap="round"/>
  </symbol>
  <symbol id="dashboard-skills" viewBox="0 0 48 48">
    <circle cx="13" cy="16" r="4" fill="none" stroke="currentColor" stroke-width="2.5"/>
    <circle cx="35" cy="14" r="4" fill="none" stroke="currentColor" stroke-width="2.5"/>
    <circle cx="24" cy="32" r="4" fill="none" stroke="currentColor" stroke-width="2.5"/>
    <path d="M16.5 18.5l5 9M31.5 16.5l-5 11M17 16h14" fill="none" stroke="currentColor" stroke-width="2.5" stroke-linecap="round"/>
  </symbol>
  <symbol id="dashboard-companies" viewBox="0 0 48 48">
    <path d="M9 38V14l11-4v28M20 38V20h10v18M30 38V10l9 3v25" fill="none" stroke="currentColor" stroke-width="2.5" stroke-linejoin="round"/>
    <path d="M13 18h2M13 24h2M24 24h2M24 30h2M34 16h2M34 22h2" fill="none" stroke="currentColor" stroke-width="2.5" stroke-linecap="round"/>
  </symbol>
  <symbol id="dashboard-situations" viewBox="0 0 48 48">
    <rect x="9" y="8" width="30" height="32" rx="4" fill="none" stroke="currentColor" stroke-width="2.5"/>
    <path d="M16 18h16M16 24h16M16 30h10" fill="none" stroke="currentColor" stroke-width="2.5" stroke-linecap="round"/>
    <path d="M30 28l3 3 5-6" fill="none" stroke="currentColor" stroke-width="2.5" stroke-linecap="round" stroke-linejoin="round"/>
  </symbol>
  <symbol id="dashboard-watch" viewBox="0 0 48 48">
    <path d="M24 8c9 0 15 8 17 16-2 8-8 16-17 16S9 32 7 24C9 16 15 8 24 8z" fill="none" stroke="currentColor" stroke-width="2.5" stroke-linejoin="round"/>
    <circle cx="24" cy="24" r="5" fill="none" stroke="currentColor" stroke-width="2.5"/>
    <circle cx="24" cy="24" r="1.8" fill="currentColor"/>
  </symbol>
  <symbol id="company-justice" viewBox="0 0 48 48">
    <path d="M24 9v24M15 15h18M12 39h24" fill="none" stroke="currentColor" stroke-width="2.5" stroke-linecap="round"/>
    <path d="M15 15l-6 10h12l-6-10zM33 15l-6 10h12l-6-10z" fill="none" stroke="currentColor" stroke-width="2.5" stroke-linejoin="round"/>
  </symbol>
  <symbol id="company-retail" viewBox="0 0 48 48">
    <path d="M9 18h30l-2-7H11l-2 7zM12 18v19h24V18" fill="none" stroke="currentColor" stroke-width="2.5" stroke-linejoin="round"/>
    <path d="M20 37V26h8v11" fill="none" stroke="currentColor" stroke-width="2.5"/>
  </symbol>
  <symbol id="company-office" viewBox="0 0 48 48">
    <path d="M14 38V12l20-4v30" fill="none" stroke="currentColor" stroke-width="2.5" stroke-linejoin="round"/>
    <path d="M20 18h2M20 24h2M26 18h2M26 24h2M20 30h2M26 30h2" fill="none" stroke="currentColor" stroke-width="2.5" stroke-linecap="round"/>
  </symbol>
  <symbol id="company-it" viewBox="0 0 48 48">
    <rect x="8" y="10" width="32" height="18" rx="3" fill="none" stroke="currentColor" stroke-width="2.5"/>
    <path d="M16 38h16M24 28v10" fill="none" stroke="currentColor" stroke-width="2.5" stroke-linecap="round"/>
    <path d="M15 19l4 4-4 4M23 27h8" fill="none" stroke="currentColor" stroke-width="2.5" stroke-linecap="round" stroke-linejoin="round"/>
  </symbol>
  <symbol id="company-mission" viewBox="0 0 48 48">
    <rect x="13" y="9" width="22" height="30" rx="3" fill="none" stroke="currentColor" stroke-width="2.5"/>
    <path d="M19 9v-1a2 2 0 012-2h6a2 2 0 012 2v1" fill="none" stroke="currentColor" stroke-width="2.5"/>
    <path d="M18 20h12M18 26h8" fill="none" stroke="currentColor" stroke-width="2.5" stroke-linecap="round"/>
    <path d="M27 29l2.5 2.5L34 26" fill="none" stroke="currentColor" stroke-width="2.5" stroke-linecap="round" stroke-linejoin="round"/>
  </symbol>
  <symbol id="company-tools" viewBox="0 0 48 48">
    <path d="M14 12l6 6-8 8-6-6 8-8zM30 10l8 8M26 22l12 12" fill="none" stroke="currentColor" stroke-width="2.5" stroke-linecap="round" stroke-linejoin="round"/>
    <path d="M28 8a7 7 0 009 9" fill="none" stroke="currentColor" stroke-width="2.5" stroke-linecap="round"/>
  </symbol>
  <symbol id="project-pharma" viewBox="0 0 48 48">
    <path d="M19 10h10M24 10v10M17 20h14a5 5 0 015 5v8a5 5 0 01-5 5H17a5 5 0 01-5-5v-8a5 5 0 015-5z" fill="none" stroke="currentColor" stroke-width="2.5" stroke-linecap="round"/>
  </symbol>
  <symbol id="project-support" viewBox="0 0 48 48">
    <path d="M12 26v-3a12 12 0 1124 0v3" fill="none" stroke="currentColor" stroke-width="2.5" stroke-linecap="round"/>
    <rect x="10" y="25" width="6" height="10" rx="2" fill="none" stroke="currentColor" stroke-width="2.5"/>
    <rect x="32" y="25" width="6" height="10" rx="2" fill="none" stroke="currentColor" stroke-width="2.5"/>
    <path d="M16 35c2 2 5 3 8 3h4" fill="none" stroke="currentColor" stroke-width="2.5" stroke-linecap="round"/>
  </symbol>
  <symbol id="project-ops" viewBox="0 0 48 48">
    <circle cx="18" cy="18" r="5" fill="none" stroke="currentColor" stroke-width="2.5"/>
    <path d="M21.5 21.5l7 7M28 12h10M28 18h10M28 24h10" fill="none" stroke="currentColor" stroke-width="2.5" stroke-linecap="round"/>
  </symbol>
  <symbol id="project-homelab" viewBox="0 0 48 48">
    <path d="M10 22l14-11 14 11" fill="none" stroke="currentColor" stroke-width="2.5" stroke-linecap="round" stroke-linejoin="round"/>
    <path d="M15 20v18h18V20" fill="none" stroke="currentColor" stroke-width="2.5" stroke-linejoin="round"/>
    <rect x="20" y="24" width="8" height="11" rx="1" fill="none" stroke="currentColor" stroke-width="2.5"/>
  </symbol>
  <symbol id="contact-mail" viewBox="0 0 48 48">
    <rect x="8" y="12" width="32" height="24" rx="4" fill="none" stroke="currentColor" stroke-width="2.5"/>
    <path d="M12 17l12 9 12-9" fill="none" stroke="currentColor" stroke-width="2.5" stroke-linecap="round" stroke-linejoin="round"/>
  </symbol>
  <symbol id="contact-linkedin" viewBox="0 0 48 48">
    <rect x="10" y="10" width="28" height="28" rx="4" fill="none" stroke="currentColor" stroke-width="2.5"/>
    <path d="M17 21v10M17 17h.01M23 31v-6a3 3 0 016 0v6M23 25a3 3 0 013-3" fill="none" stroke="currentColor" stroke-width="2.5" stroke-linecap="round" stroke-linejoin="round"/>
  </symbol>
  <symbol id="contact-phone" viewBox="0 0 48 48">
    <path d="M16 9h16a3 3 0 013 3v24a3 3 0 01-3 3H16a3 3 0 01-3-3V12a3 3 0 013-3z" fill="none" stroke="currentColor" stroke-width="2.5"/>
    <path d="M21 14h6M23 34h2" fill="none" stroke="currentColor" stroke-width="2.5" stroke-linecap="round"/>
  </symbol>
  <symbol id="situation-routing" viewBox="0 0 48 48">
    <circle cx="12" cy="14" r="4" fill="none" stroke="currentColor" stroke-width="2.5"/>
    <circle cx="36" cy="14" r="4" fill="none" stroke="currentColor" stroke-width="2.5"/>
    <circle cx="24" cy="34" r="4" fill="none" stroke="currentColor" stroke-width="2.5"/>
    <path d="M16 14h16M14 18l8 12M34 18l-8 12" fill="none" stroke="currentColor" stroke-width="2.5" stroke-linecap="round"/>
  </symbol>
  <symbol id="situation-directory" viewBox="0 0 48 48">
    <circle cx="24" cy="14" r="5" fill="none" stroke="currentColor" stroke-width="2.5"/>
    <path d="M14 36v-3a6 6 0 016-6h8a6 6 0 016 6v3" fill="none" stroke="currentColor" stroke-width="2.5" stroke-linecap="round"/>
    <path d="M8 18h7M33 18h7" fill="none" stroke="currentColor" stroke-width="2.5" stroke-linecap="round"/>
  </symbol>
</svg>
